<?xml version="1.0" encoding="utf-8"?>
<!-- Generator: Adobe Illustrator 19.0.1, SVG Export Plug-In . SVG Version: 6.00 Build 0)  -->
<svg version="1.1" id="Слой_1" xmlns="http://www.w3.org/2000/svg" xmlns:xlink="http://www.w3.org/1999/xlink" x="0px" y="0px"
	 viewBox="7 1 64 64" style="enable-background:new 7 1 64 64;" xml:space="preserve">
<style type="text/css">
	.st0{fill:none;stroke:#0E55D6;stroke-width:2;stroke-linecap:round;stroke-linejoin:round;stroke-miterlimit:10;}
</style>
<title>Man</title>
<desc>A line styled icon from Orion Icon Library.</desc>
<path class="st0" d="M48.7,49.7c-2-1.5-1.7-3.1-1.7-4.2v-4 M31,42.5v3c0,1.3,0.4,3.1-2.2,4.7"/>
<path class="st0" d="M44.6,43.5c3.6-2.3,6.2-6,7.2-10.1c3,0,4.2-2.9,4.2-6.9c0-2,0-4.9-3-4.9v-2 M24,19.5v2c-2,0-3,3-3,5
	c0,4,1.4,7,4.4,7h0c0.9,4.2,3.5,7.8,7.2,10 M53,19.5v-2c0-10.4-7.4-14-14-14S24,7,24,17.4v2.1c12,0,13-8,21-8
	C52.5,11.5,53,19.5,53,19.5z"/>
<path class="st0" d="M21,52.5c-12.6,2-12,11-12,11h30L28.8,50.2C27.4,51.1,25,51.9,21,52.5z M57,52.5c-4.4-0.7-6.9-1.7-8.3-2.8
	L39,63.5h30C69,63.5,69,54.5,57,52.5L57,52.5z"/>
</svg>
