<?xml version="1.0" encoding="utf-8"?>
<!-- Generator: Adobe Illustrator 19.0.1, SVG Export Plug-In . SVG Version: 6.00 Build 0)  -->
<svg version="1.1" id="Слой_1" xmlns="http://www.w3.org/2000/svg" xmlns:xlink="http://www.w3.org/1999/xlink" x="0px" y="0px"
	 viewBox="7 1 64 64" style="enable-background:new 7 1 64 64;" xml:space="preserve">
<style type="text/css">
	.st0{fill:none;stroke:#0E55D6;stroke-width:2;stroke-linecap:round;stroke-linejoin:round;stroke-miterlimit:10;}
</style>
<title>Money Box</title>
<desc>A line styled icon from Orion Icon Library.</desc>
<path class="st0" d="M35.8,20.5c-2.5,0.3-4.9,1.1-7.1,2.2c-7.9,4.2-9.2,11-9.2,16.3s2.3,13.1,10.8,20h7.3v-4l8.9,0.5
	c0.6,1.2,1.4,2.4,2.3,3.5h6.7v-6c2.1-1.5,4.1-3.2,6-5c2.9,0.3,5.9-2,7-8.7c0-1-0.5-1.3-1-1.3c-1.1-0.1-2.1-0.4-3-1
	c-0.4-0.5-1.6-4.7-3.8-8c0.8-2.1,2.3-3.9,4.1-5.2c-2.8-1.4-5.7-2.4-11.4-1.8c-1.5-0.3-4-0.9-6.4-1.3"/>
<circle class="st0" cx="41.5" cy="15" r="8"/>
<path class="st0" d="M19.5,39c-2.9-0.3-10-1.4-10,2s1.9,3.4,3.8,2.6s4.3-5.5-3.8-8.6 M35.2,26.1c4.1-1.4,8.6-1.4,12.7-0.1"/>
<circle class="st0" cx="55.5" cy="35" r="1"/>
</svg>
